<svg data-v-0dd9719b="" version="1.0" xmlns="http://www.w3.org/2000/svg" xmlns:xlink="http://www.w3.org/1999/xlink" width="100%" height="100%" viewBox="0 0 340.000000 250.000000" preserveAspectRatio="xMidYMid meet" color-interpolation-filters="sRGB" style="margin: auto;"> <rect data-v-0dd9719b="" x="0" y="0" width="100%" height="100%" fill="#ffffff" fill-opacity="1" class="background"></rect> <rect data-v-0dd9719b="" x="0" y="0" width="100%" height="100%" fill="url(#watermark)" fill-opacity="1" class="watermarklayer"></rect> <g data-v-0dd9719b="" fill="#a23bea" class="icon-text-wrapper icon-svg-group iconsvg" transform="translate(48.23999786376953,95.0649585723877)"><g class="iconsvg-imagesvg" transform="translate(0,0)"><g><rect fill="#a23bea" fill-opacity="0" stroke-width="2" x="0" y="0" width="60" height="59.87008192222876" class="image-rect"></rect> <svg filter="url(#colors895736224)" x="0" y="0" width="60" height="59.87008192222876" filtersec="colorsf5037240281" class="image-svg-svg primary" style="overflow: visible;"><svg xmlns="http://www.w3.org/2000/svg" viewBox="0 -0.011135101318359375 103.82611083984375 103.60115051269531"><title>资源 9</title><path d="M11.65.05L.29 13h6.54c7.34 0 14.67-.06 22 .05A5.37 5.37 0 0 0 33.55 11c2.64-3.25 5.45-6.35 8.28-9.39A4.63 4.63 0 0 1 44.71.12C53.79 0 62.87.05 72 .06c.39 0 .77.1 1.65.21l-11 12.53c1.12.09 1.82.2 2.52.2 8.25 0 16.5.07 24.75-.07a5.62 5.62 0 0 0 3.57-1.62c3.3-3.46 6.41-7.13 10.15-10.54 0 4 .06 7.91-.07 11.86 0 .7-.79 1.43-1.32 2-2.91 3.33-5.78 6.68-8.82 9.88a5 5 0 0 1-3.17 1.39c-5.16.14-10.33 0-15.49.1a3.61 3.61 0 0 0-2.45.79c-3.24 3.78-6.35 7.68-9.79 11.9 1.16.08 1.86.18 2.57.18 8.25 0 16.5.07 24.74-.07a5.62 5.62 0 0 0 3.59-1.6c3.32-3.48 6.44-7.16 10-10.65-.53 5.4 2.52 11.25-2.81 15.93a54.12 54.12 0 0 0-6.47 7.28 5.2 5.2 0 0 1-4.71 2.08c-4.75-.13-9.5-.15-14.24 0a5.67 5.67 0 0 0-3.58 1.59c-3.21 3.44-6.18 7.09-9.55 11 1.23.1 1.94.2 2.65.21 8.41 0 16.83.07 25.24-.07A5.55 5.55 0 0 0 93.48 63c3.33-3.47 6.45-7.13 10.17-11.31 0 4.71.06 8.66-.06 12.6 0 .71-.76 1.46-1.29 2.07-2.91 3.32-5.79 6.68-8.84 9.86a5 5 0 0 1-3.16 1.4c-5 .15-10 0-15 .1a3.89 3.89 0 0 0-2.52.62c-3.55 3.82-7 7.76-10.78 12 1.23.11 1.93.22 2.63.22h25.24a4.47 4.47 0 0 0 3.82-1.81c3.07-3.59 6.25-7.09 9.92-11.24v12.81c0 .49-.56 1-.94 1.44-3.13 3.57-6.25 7.15-9.45 10.66a3.27 3.27 0 0 1-2.08 1.07c-9.49.06-19 0-28.49 0a4.84 4.84 0 0 1-1-.31c0-3.31-.1-6.71 0-10.1.08-2-.6-2.57-2.56-2.52-5 .12-10-.06-15 .11a5.37 5.37 0 0 0-3.31 1.57c-3 3.19-5.84 6.63-8.89 9.82a4.93 4.93 0 0 1-3.14 1.42c-8.75.11-17.5 0-26.25.11-2.06 0-2.48-.7-2.47-2.6Q.09 51.85 0 2.61C0 .45.71-.1 2.72 0c2.72.17 5.46.05 8.93.05zm49.77 77.58V65.17a4.82 4.82 0 0 0-1.09-.29c-5.66 0-11.32-.09-17 0a4 4 0 0 0-2.44 1.35C38 69.43 35.07 72.65 32.3 76a4.61 4.61 0 0 1-4.07 1.78c-4.91-.11-9.82 0-14.73 0-.72 0-1.71 0-2.1.42C7.76 82.1 4.23 86.13.5 90.33a7.81 7.81 0 0 0 1.14.28h28a4.29 4.29 0 0 0 2.68-1.36c2.9-3.1 5.73-6.27 8.45-9.53a5 5 0 0 1 4.43-2.09c5.28.1 10.6 0 16.22 0zM.5 38.59a12.25 12.25 0 0 0 1.8.31c9 0 18 .05 27 0a4.23 4.23 0 0 0 2.68-1.35q4.52-4.83 8.79-9.88a4.38 4.38 0 0 1 3.82-1.78c5 .11 10 .08 15 0 .69 0 1.92-.72 1.94-1.14.15-3.78.09-7.57.09-11.58-6.46 0-12.52 0-18.57.06a3.37 3.37 0 0 0-2 1.23c-3 3.32-5.91 6.77-9 10a5.39 5.39 0 0 1-3.34 1.53c-5 .16-10 0-15 .09a3.89 3.89 0 0 0-2.51.64C7.6 30.5 4.18 34.44.5 38.59zM.26 64.72c10.33 0 19.89 0 29.45-.06a3.59 3.59 0 0 0 2.23-1.26C35 60 38 56.51 41.12 53.19a4.92 4.92 0 0 1 3.15-1.41c5.08-.15 10.16 0 15.23-.13.7 0 2-.86 2-1.36.17-3.63.09-7.28.09-10.86a3.78 3.78 0 0 0-.94-.34c-5.82 0-11.65-.08-17.47 0a3.64 3.64 0 0 0-2.24 1.25c-2.87 3.12-5.75 6.24-8.43 9.53a5.08 5.08 0 0 1-4.5 2c-4.83-.1-9.66-.06-14.48 0a3.46 3.46 0 0 0-2.29.61c-3.56 3.82-7 7.76-10.98 12.24z" fill="#000000"></path></svg></svg> <defs><filter id="colors895736224"><feColorMatrix type="matrix" values="0 0 0 0 0.36328125  0 0 0 0 0.19921875  0 0 0 0 0.9609375  0 0 0 1 0" class="icon-fecolormatrix"></feColorMatrix></filter> <filter id="colorsf5037240281"><feColorMatrix type="matrix" values="0 0 0 0 0.99609375  0 0 0 0 0.99609375  0 0 0 0 0.99609375  0 0 0 1 0" class="icon-fecolormatrix"></feColorMatrix></filter> <filter id="colorsb7160169041"><feColorMatrix type="matrix" values="0 0 0 0 0  0 0 0 0 0  0 0 0 0 0  0 0 0 1 0" class="icon-fecolormatrix"></feColorMatrix></filter></defs></g></g> <g transform="translate(67,10.74504280090332)"><g data-gra="path-name" fill-rule="" class="tp-name iconsvg-namesvg"><g transform="scale(1)"><g><path d="M17.07 0.42C20.68 0.42 24.88-0.25 27.13-0.93L27.13-17.96 15.03-17.96 15.03-10.91 19.36-10.91 19.36-6.62C18.73-6.58 18.64-6.58 17.49-6.58 12.23-6.58 11.38-8.58 11.38-14.73 11.38-20.64 12.95-22.76 17.88-22.76 20.13-22.76 22.85-22.38 25.22-21.57L25.22-28.92C23.48-29.47 20-29.89 17.15-29.89 7.86-29.89 2.04-26.11 2.04-14.73 2.04-2.38 7.6 0.42 17.07 0.42ZM42.17-23.31C40.51-23.31 38.05-23.23 36.31-22.93L36.31-16.18C37.79-16.43 39.36-16.56 41.02-16.56 44.37-16.56 45.22-16.22 45.35-13.89L40.64-13.89C33.97-13.89 30.96-11.93 30.96-6.67 30.96-1.74 33.97 0.42 38.77 0.42 42.8 0.42 44.76-0.98 45.44-2.12L46.07 0 53.38 0 53.38-15.58C53.38-20.93 50.19-23.31 42.17-23.31ZM41.32-5.56C39.66-5.56 38.77-5.86 38.77-7.05 38.77-8.41 39.58-8.79 42.12-8.79L45.35-8.79 45.35-7.01C44.71-6.2 43.31-5.56 41.32-5.56ZM73.8-23.35C70.06-23.35 67.86-22.17 66.71-20.59L66.71-22.93 58.64-22.93 58.64 0 66.71 0 66.71-15.12C67.05-16.26 67.94-16.99 69.98-16.99 72.53-16.99 73.25-16.52 73.25-13.67L73.25 0 81.32 0 81.32-15.5C81.32-21.06 79.19-23.35 73.8-23.35ZM100.85-22.93L100.85-20.93C99.96-22.63 98.22-23.35 94.31-23.35 87.05-23.35 85.18-17.96 85.18-11.68 85.18-4.71 87.05 0 94.31 0 98.17 0 99.96-0.98 100.85-2.63L100.85-2.04C100.85 1.61 99.02 2.51 94.14 2.51 92.14 2.51 89.55 2.17 87.73 1.7L87.73 7.94C89.89 8.28 92.82 8.49 94.99 8.49 105.86 8.49 108.83 4.37 108.83-1.91L108.83-22.93ZM97.11-5.56C93.84-5.56 93.33-8.37 93.33-11.68 93.33-14.78 93.84-17.58 97.11-17.58 100.98-17.58 101.23-15.37 101.23-11.68 101.23-7.77 100.98-5.56 97.11-5.56ZM126.71-16.73L126.71-22.93 122.63-22.93 122.63-28.37 114.56-28.37 114.56-22.93 111.85-22.93 111.85-16.73 114.56-16.73 114.56-7.56C114.56-1.57 116.69 0.25 122.8 0.25 123.82 0.25 125.18 0.17 126.07 0.04L126.07-5.99C125.69-5.86 125.22-5.9 124.76-5.9 123.1-5.9 122.63-6.33 122.63-8.32L122.63-16.73ZM139.7-23.31C138.05-23.31 135.58-23.23 133.84-22.93L133.84-16.18C135.33-16.43 136.9-16.56 138.56-16.56 141.91-16.56 142.76-16.22 142.89-13.89L138.17-13.89C131.51-13.89 128.49-11.93 128.49-6.67 128.49-1.74 131.51 0.42 136.31 0.42 140.34 0.42 142.29-0.98 142.97-2.12L143.61 0 150.91 0 150.91-15.58C150.91-20.93 147.73-23.31 139.7-23.31ZM138.85-5.56C137.2-5.56 136.31-5.86 136.31-7.05 136.31-8.41 137.11-8.79 139.66-8.79L142.89-8.79 142.89-7.01C142.25-6.2 140.85-5.56 138.85-5.56ZM166.84 0.42C174.14 0.42 178.56-2.04 178.56-11.46 178.56-20.89 174.14-23.35 166.84-23.35 159.53-23.35 155.12-20.89 155.12-11.46 155.12-2.04 159.53 0.42 166.84 0.42ZM166.84-5.44C164.12-5.44 163.27-6.79 163.27-11.46 163.27-16.14 164.12-17.58 166.84-17.58 169.55-17.58 170.4-16.14 170.4-11.46 170.4-6.79 169.55-5.44 166.84-5.44Z" transform="translate(-2.0399999618530273, 29.889999389648438)"></path></g> <!----> <!----> <!----> <!----> <!----> <!----> <!----></g></g> <!----></g></g><defs v-gra="od"></defs></svg>